<svg id="visual" viewBox="0 0 900 600" width="900" height="600" xmlns="http://www.w3.org/2000/svg" xmlns:xlink="http://www.w3.org/1999/xlink" version="1.1"><rect x="0" y="0" width="900" height="600" fill="#2c4755"></rect><defs><linearGradient id="grad1_0" x1="33.3%" y1="0%" x2="100%" y2="100%"><stop offset="20%" stop-color="#10cab7" stop-opacity="1"></stop><stop offset="80%" stop-color="#10cab7" stop-opacity="1"></stop></linearGradient></defs><defs><linearGradient id="grad1_1" x1="33.3%" y1="0%" x2="100%" y2="100%"><stop offset="20%" stop-color="#10cab7" stop-opacity="1"></stop><stop offset="80%" stop-color="#009ca3" stop-opacity="1"></stop></linearGradient></defs><defs><linearGradient id="grad1_2" x1="33.3%" y1="0%" x2="100%" y2="100%"><stop offset="20%" stop-color="#217081" stop-opacity="1"></stop><stop offset="80%" stop-color="#009ca3" stop-opacity="1"></stop></linearGradient></defs><defs><linearGradient id="grad1_3" x1="33.3%" y1="0%" x2="100%" y2="100%"><stop offset="20%" stop-color="#217081" stop-opacity="1"></stop><stop offset="80%" stop-color="#2c4755" stop-opacity="1"></stop></linearGradient></defs><defs><linearGradient id="grad2_0" x1="0%" y1="0%" x2="66.7%" y2="100%"><stop offset="20%" stop-color="#10cab7" stop-opacity="1"></stop><stop offset="80%" stop-color="#10cab7" stop-opacity="1"></stop></linearGradient></defs><defs><linearGradient id="grad2_1" x1="0%" y1="0%" x2="66.7%" y2="100%"><stop offset="20%" stop-color="#009ca3" stop-opacity="1"></stop><stop offset="80%" stop-color="#10cab7" stop-opacity="1"></stop></linearGradient></defs><defs><linearGradient id="grad2_2" x1="0%" y1="0%" x2="66.7%" y2="100%"><stop offset="20%" stop-color="#009ca3" stop-opacity="1"></stop><stop offset="80%" stop-color="#217081" stop-opacity="1"></stop></linearGradient></defs><defs><linearGradient id="grad2_3" x1="0%" y1="0%" x2="66.7%" y2="100%"><stop offset="20%" stop-color="#2c4755" stop-opacity="1"></stop><stop offset="80%" stop-color="#217081" stop-opacity="1"></stop></linearGradient></defs><g transform="translate(900, 0)"><path d="M0 378.6C-39.6 323.3 -79.3 268 -140.5 243.4C-201.7 218.7 -284.6 224.7 -327.9 189.3C-371.1 153.8 -374.9 76.9 -378.6 0L0 0Z" fill="#2a5b6c"></path><path d="M0 283.9C-29.7 242.5 -59.4 201 -105.4 182.5C-151.3 164 -213.4 168.6 -245.9 142C-278.4 115.4 -281.1 57.7 -283.9 0L0 0Z" fill="#0f8694"></path><path d="M0 189.3C-19.8 161.6 -39.6 134 -70.2 121.7C-100.9 109.4 -142.3 112.4 -163.9 94.6C-185.6 76.9 -187.4 38.5 -189.3 0L0 0Z" fill="#00b3af"></path><path d="M0 94.6C-9.9 80.8 -19.8 67 -35.1 60.8C-50.4 54.7 -71.1 56.2 -82 47.3C-92.8 38.5 -93.7 19.2 -94.6 0L0 0Z" fill="#10cab7"></path></g><g transform="translate(0, 600)"><path d="M0 -378.6C78.8 -375.9 157.5 -373.3 189.3 -327.9C221 -282.4 205.8 -194.3 229.5 -132.5C253.2 -70.7 315.9 -35.4 378.6 0L0 0Z" fill="#2a5b6c"></path><path d="M0 -283.9C59.1 -281.9 118.2 -280 142 -245.9C165.8 -211.8 154.3 -145.7 172.1 -99.4C189.9 -53 236.9 -26.5 283.9 0L0 0Z" fill="#0f8694"></path><path d="M0 -189.3C39.4 -188 78.8 -186.6 94.6 -163.9C110.5 -141.2 102.9 -97.1 114.7 -66.3C126.6 -35.4 157.9 -17.7 189.3 0L0 0Z" fill="#00b3af"></path><path d="M0 -94.6C19.7 -94 39.4 -93.3 47.3 -82C55.3 -70.6 51.4 -48.6 57.4 -33.1C63.3 -17.7 79 -8.8 94.6 0L0 0Z" fill="#10cab7"></path></g></svg>